<?xml version="1.0" standalone="no"?><svg xmlns="http://www.w3.org/2000/svg" viewBox="0 0 1440 320"><path fill="#000" fill-opacity="1" d="M0,256L30,234.7C60,213,120,171,180,149.3C240,128,300,128,360,138.7C420,149,480,171,540,165.3C600,160,660,128,720,144C780,160,840,224,900,250.7C960,277,1020,267,1080,266.7C1140,267,1200,277,1260,266.7C1320,256,1380,224,1410,208L1440,192L1440,0L1410,0C1380,0,1320,0,1260,0C1200,0,1140,0,1080,0C1020,0,960,0,900,0C840,0,780,0,720,0C660,0,600,0,540,0C480,0,420,0,360,0C300,0,240,0,180,0C120,0,60,0,30,0L0,0Z"></path></svg>